<svg width="50" height="50" viewBox="0 0 50 50" fill="none" xmlns="http://www.w3.org/2000/svg">
<g filter="url(#filter0_d)">
<path d="M47.8435 33.9921C48.8682 32.6851 49.3596 31.284 49.2968 29.8411C49.2341 28.2518 48.5231 27.0075 47.9376 26.2442C48.6172 24.5504 48.8786 21.8841 46.6097 19.8139C44.9472 18.2978 42.1241 17.6182 38.2136 17.8064C35.4637 17.9318 33.1634 18.4442 33.0693 18.4651H33.0589C32.5361 18.5592 31.9819 18.6742 31.4173 18.7997C31.3755 18.1305 31.4905 16.468 32.7243 12.7248C34.1881 8.2706 34.1045 4.86198 32.4524 2.5826C30.7168 0.188206 27.9459 0 27.1304 0C26.3462 0 25.6247 0.324132 25.1124 0.920117C23.9518 2.26893 24.0877 4.75742 24.2341 5.90757C22.8539 9.60895 18.9853 18.6847 15.7126 21.2045C15.6498 21.2463 15.5976 21.2986 15.5453 21.3509C14.5833 22.3651 13.9351 23.463 13.4959 24.4249C12.879 24.0903 12.1785 23.9021 11.4257 23.9021H5.04758C2.64273 23.9021 0.697937 25.8574 0.697937 28.2518V45.2426C0.697937 47.6474 2.65319 49.5922 5.04758 49.5922H11.4257C12.3562 49.5922 13.2241 49.2995 13.9351 48.7976L16.3922 49.0903C16.7686 49.1426 23.4604 49.9895 30.3299 49.8536C31.5741 49.9477 32.7452 50 33.8326 50C35.7042 50 37.3353 49.8536 38.6946 49.5609C41.8941 48.8812 44.0794 47.522 45.1877 45.5249C46.0346 43.9983 46.0346 42.4822 45.8987 41.5203C47.9794 39.6382 48.3454 37.5575 48.2722 36.0937C48.2303 35.2468 48.0421 34.5253 47.8435 33.9921ZM5.04758 46.7691C4.20066 46.7691 3.52102 46.079 3.52102 45.2426V28.2413C3.52102 27.3944 4.21111 26.7148 5.04758 26.7148H11.4257C12.2726 26.7148 12.9522 27.4049 12.9522 28.2413V45.2321C12.9522 46.079 12.2621 46.7587 11.4257 46.7587H5.04758V46.7691V46.7691ZM45.1668 32.7687C44.7276 33.2288 44.644 33.9293 44.9786 34.473C44.9786 34.4835 45.4073 35.2154 45.4595 36.2192C45.5327 37.5889 44.874 38.8018 43.4938 39.8369C43.0024 40.2133 42.8038 40.8616 43.0129 41.4471C43.0129 41.4575 43.4625 42.8377 42.7306 44.1447C42.03 45.3994 40.4721 46.2986 38.1091 46.8005C36.2165 47.2083 33.6444 47.2815 30.4867 47.0305C30.4449 47.0305 30.3926 47.0305 30.3403 47.0305C23.6172 47.1769 16.8209 46.2986 16.7477 46.2882H16.7372L15.6812 46.1627C15.7439 45.8699 15.7753 45.5563 15.7753 45.2426V28.2413C15.7753 27.7917 15.7021 27.3526 15.5766 26.9448C15.7649 26.2442 16.2876 24.6863 17.5214 23.3584C22.2161 19.6361 26.8063 7.07863 27.0049 6.53492C27.0886 6.31535 27.1095 6.07486 27.0677 5.83438C26.8899 4.66332 26.9526 3.23087 27.2036 2.80217C27.7577 2.81263 29.2529 2.96947 30.1521 4.21372C31.2186 5.688 31.1768 8.32288 30.0267 11.8151C28.2701 17.1372 28.1237 19.9394 29.5143 21.1731C30.2044 21.79 31.1245 21.8214 31.7937 21.5809C32.4315 21.4345 33.038 21.3091 33.613 21.215C33.6549 21.2045 33.7071 21.1941 33.749 21.1836C36.9589 20.4831 42.7096 20.0544 44.7067 21.8737C46.4006 23.4212 45.1981 25.4705 45.0622 25.6901C44.6754 26.2756 44.7904 27.0389 45.3132 27.5094C45.3236 27.5199 46.4215 28.555 46.4738 29.9456C46.5156 30.8762 46.0764 31.8277 45.1668 32.7687Z" fill="#2E2F22"/>
<path d="M47.45 33.6836L47.2771 33.9041L47.3749 34.1666C47.5587 34.6598 47.7339 35.3305 47.7728 36.1183L47.7728 36.1187C47.8401 37.4656 47.5103 39.3883 45.5633 41.1495L45.3665 41.3275L45.4036 41.5902C45.5302 42.4859 45.5274 43.8819 44.7505 45.2823C43.7384 47.1059 41.7114 48.4089 38.5907 49.0718L38.5893 49.0721C37.2744 49.3553 35.6805 49.5 33.8326 49.5C32.7607 49.5 31.6027 49.4484 30.3676 49.355L30.3438 49.3532L30.32 49.3537C23.4879 49.4889 16.8253 48.6457 16.461 48.5951L16.461 48.595L16.4514 48.5938L13.9942 48.3011L13.8036 48.2784L13.6467 48.3891C13.0177 48.8331 12.2501 49.0922 11.4257 49.0922H5.04758C2.92855 49.0922 1.19794 47.3705 1.19794 45.2426V28.2518C1.19794 26.1327 2.91965 24.4021 5.04758 24.4021H11.4257C12.0934 24.4021 12.7122 24.5687 13.2575 24.8644L13.7283 25.1198L13.9508 24.6326C14.3721 23.7097 14.9907 22.6635 15.9035 21.6998C15.9576 21.6458 15.9755 21.6302 15.9899 21.6205L16.0041 21.6111L16.0176 21.6007C16.9007 20.9207 17.7922 19.8271 18.6463 18.5497C19.5056 17.2645 20.3491 15.7593 21.1287 14.2257C22.688 11.1585 24.0076 7.9462 24.7026 6.08226L24.7457 5.96674L24.7301 5.84444C24.6596 5.29009 24.593 4.42116 24.6807 3.53775C24.7696 2.64235 25.0101 1.80557 25.4914 1.24624L25.4916 1.24606C25.907 0.762798 26.4889 0.5 27.1304 0.5C27.9063 0.5 30.4595 0.685168 32.0476 2.87606C33.5562 4.95753 33.6967 8.16404 32.2494 12.5683C31.0087 16.3325 30.8705 18.0668 30.9183 18.8309L30.9548 19.4146L31.5258 19.2878C32.0705 19.1667 32.6025 19.0561 33.1037 18.9651H33.1242L33.1778 18.9532L33.1785 18.953C33.2726 18.9321 35.5358 18.4291 38.2364 18.3058L38.2377 18.3058C42.1055 18.1196 44.7596 18.8033 46.2728 20.1833C48.3279 22.0586 48.1106 24.4702 47.4735 26.0581L47.3674 26.3225L47.5409 26.5486C48.0901 27.2645 48.74 28.4111 48.7972 29.8608L48.7973 29.8628C48.8541 31.1686 48.413 32.4553 47.45 33.6836ZM47.8435 33.9921C48.8682 32.6851 49.3596 31.284 49.2968 29.8411C49.2341 28.2518 48.5231 27.0075 47.9376 26.2442C48.6172 24.5504 48.8786 21.8841 46.6097 19.8139L47.8435 33.9921ZM45.4786 34.3544V34.3315L45.4044 34.211C45.1923 33.8663 45.2418 33.415 45.5276 33.1148C45.5279 33.1145 45.5282 33.1142 45.5285 33.114L45.1668 32.7687L45.4786 34.3544ZM46.9733 29.925C46.912 28.3164 45.6654 27.1546 45.6667 27.1559L45.6574 27.1466L45.6476 27.1378C45.2998 26.8247 45.2355 26.3348 45.4794 25.9657L45.4835 25.9595L45.4874 25.9533C45.5696 25.8204 45.9452 25.1843 46.0655 24.3513C46.189 23.4961 46.0414 22.4158 45.044 21.5045L45.0434 21.5041C44.4548 20.9678 43.6271 20.627 42.718 20.4131C41.8015 20.1975 40.7568 20.1004 39.6905 20.0838C37.5584 20.0504 35.2795 20.3378 33.6423 20.6951L33.635 20.6967L33.6277 20.6985C33.6144 20.7019 33.5977 20.7056 33.5725 20.7112L33.5697 20.7118C33.5537 20.7154 33.5338 20.7198 33.5135 20.7246C32.9301 20.8207 32.3189 20.9474 31.6819 21.0936L31.6527 21.1003L31.6246 21.1104C31.0855 21.3041 30.3701 21.2675 29.8476 20.8004L29.8462 20.7991C29.3173 20.3299 29.0107 19.5094 29.0896 18.0543C29.1682 16.6019 29.6269 14.6215 30.5015 11.9719L30.5016 11.9715C31.0864 10.1957 31.3986 8.61185 31.4206 7.26586C31.4425 5.9229 31.1757 4.77564 30.5573 3.92066C29.5128 2.47562 27.8032 2.3134 27.213 2.30226L26.9201 2.29674L26.7721 2.54959C26.6637 2.73472 26.6005 2.97548 26.5594 3.20339C26.516 3.44418 26.4885 3.72328 26.4754 4.01766C26.4492 4.60593 26.4792 5.28948 26.5733 5.90941L26.5732 5.90943L26.5751 5.92005C26.6023 6.07696 26.5876 6.22598 26.5377 6.35692L26.5376 6.35691L26.5353 6.36333C26.4379 6.62974 25.2472 9.88756 23.4983 13.5387C22.6237 15.3645 21.6134 17.2805 20.5347 18.9664C19.4512 20.6598 18.3196 22.0875 17.2108 22.9666L17.181 22.9902L17.1551 23.0181C15.8419 24.4315 15.2915 26.0791 15.0938 26.8151L15.0564 26.9542L15.0988 27.0918C15.2108 27.456 15.2753 27.8456 15.2753 28.2413V45.2426C15.2753 45.5239 15.2471 45.8023 15.1923 46.0579L15.0773 46.5945L15.6222 46.6592L16.6783 46.7847L16.7077 46.7882H16.7153C17.2791 46.8607 23.8415 47.6716 30.3458 47.5305H30.3459H30.3462H30.3465H30.3468H30.3471H30.3474H30.3477H30.348H30.3483H30.3486H30.3489H30.3492H30.3495H30.3498H30.3501H30.3505H30.3508H30.3511H30.3514H30.3517H30.352H30.3523H30.3526H30.3529H30.3532H30.3535H30.3538H30.3541H30.3544H30.3547H30.355H30.3553H30.3557H30.356H30.3563H30.3566H30.3569H30.3572H30.3575H30.3578H30.3581H30.3584H30.3587H30.359H30.3593H30.3596H30.3599H30.3602H30.3605H30.3608H30.3612H30.3615H30.3618H30.3621H30.3624H30.3627H30.363H30.3633H30.3636H30.3639H30.3642H30.3645H30.3648H30.3651H30.3654H30.3657H30.366H30.3663H30.3666H30.3669H30.3672H30.3676H30.3679H30.3682H30.3685H30.3688H30.3691H30.3694H30.3697H30.37H30.3703H30.3706H30.3709H30.3712H30.3715H30.3718H30.3721H30.3724H30.3727H30.373H30.3733H30.3736H30.3739H30.3742H30.3745H30.3748H30.3752H30.3755H30.3758H30.3761H30.3764H30.3767H30.377H30.3773H30.3776H30.3779H30.3782H30.3785H30.3788H30.3791H30.3794H30.3797H30.38H30.3803H30.3806H30.3809H30.3812H30.3815H30.3818H30.3821H30.3824H30.3827H30.383H30.3833H30.3836H30.3839H30.3842H30.3845H30.3848H30.3851H30.3854H30.3857H30.386H30.3863H30.3866H30.3869H30.3872H30.3875H30.3878H30.3881H30.3884H30.3887H30.389H30.3893H30.3896H30.3899H30.3902H30.3905H30.3908H30.3911H30.3914H30.3917H30.392H30.3923H30.3926H30.3929H30.3932H30.3935H30.3938H30.3941H30.3944H30.3947H30.395H30.3953H30.3956H30.3959H30.3962H30.3965H30.3968H30.3971H30.3974H30.3977H30.398H30.3983H30.3986H30.3989H30.3992H30.3995H30.3998H30.4001H30.4004H30.4007H30.401H30.4013H30.4016H30.4019H30.4022H30.4025H30.4028H30.4031H30.4034H30.4037H30.404H30.4042H30.4045H30.4048H30.4051H30.4054H30.4057H30.406H30.4063H30.4066H30.4069H30.4072H30.4075H30.4078H30.4081H30.4084H30.4087H30.409H30.4093H30.4096H30.4099H30.4101H30.4104H30.4107H30.411H30.4113H30.4116H30.4119H30.4122H30.4125H30.4128H30.4131H30.4134H30.4137H30.414H30.4142H30.4145H30.4148H30.4151H30.4154H30.4157H30.416H30.4163H30.4166H30.4169H30.4172H30.4175H30.4177H30.418H30.4183H30.4186H30.4189H30.4192H30.4195H30.4198H30.4201H30.4204H30.4207H30.4209H30.4212H30.4215H30.4218H30.4221H30.4224H30.4227H30.423H30.4233H30.4235H30.4238H30.4241H30.4244H30.4247H30.425H30.4253H30.4256H30.4258H30.4261H30.4264H30.4267H30.427H30.4273H30.4276H30.4279H30.4281H30.4284H30.4287H30.429H30.4293H30.4296H30.4299H30.4301H30.4304H30.4307H30.431H30.4313H30.4316H30.4319H30.4321H30.4324H30.4327H30.433H30.4333H30.4336H30.4338H30.4341H30.4344H30.4347H30.435H30.4353H30.4355H30.4358H30.4361H30.4364H30.4367H30.4369H30.4372H30.4375H30.4378H30.4381H30.4384H30.4386H30.4389H30.4392H30.4395H30.4398H30.44H30.4403H30.4406H30.4409H30.4412H30.4414H30.4417H30.442H30.4423H30.4426H30.4428H30.4431H30.4434H30.4437H30.4439H30.4442H30.4445H30.4448H30.4451H30.4453H30.4456H30.4459H30.4462H30.4464H30.4467H30.447H30.4473H30.4475H30.4478H30.4481H30.4484H30.4486H30.4489H30.4492H30.4495H30.4497H30.45H30.4503H30.4506H30.4508H30.4511H30.4514H30.4517H30.4519H30.4522H30.4525H30.4527H30.453H30.4533H30.4536H30.4538H30.4541H30.4544H30.4547H30.4549H30.4552H30.4555H30.4557H30.456H30.4563H30.4565H30.4568H30.4571H30.4574H30.4576H30.4579H30.4582H30.4584H30.4587H30.459H30.4592H30.4595H30.4598H30.46H30.4603H30.4606H30.4608H30.4611H30.4614H30.4616H30.4619H30.4622H30.4624H30.4627H30.463H30.4632H30.4635H30.4638H30.464H30.4643H30.4646H30.4648H30.4651H30.4653H30.4656H30.4659H30.4661H30.4664H30.4667H30.4669C33.636 47.7812 36.2564 47.711 38.2135 47.2895C40.6262 46.777 42.361 45.8323 43.1671 44.3885C43.5915 43.6303 43.6691 42.8591 43.6458 42.2892C43.634 42.0028 43.5966 41.7617 43.5617 41.5897C43.5442 41.5035 43.5272 41.4343 43.5143 41.3852C43.5138 41.3833 43.5133 41.3815 43.5129 41.3797V41.3605L43.4837 41.2789C43.3494 40.9027 43.4751 40.4822 43.7962 40.2351C45.2693 39.1294 46.043 37.7715 45.9589 36.1931L46.9733 29.925ZM3.02102 45.2426C3.02102 46.353 3.92229 47.2691 5.04758 47.2691V47.2587H11.4257C12.536 47.2587 13.4522 46.3574 13.4522 45.2321V28.2413C13.4522 27.1309 12.551 26.2148 11.4257 26.2148H5.04758C3.9372 26.2148 3.02102 27.116 3.02102 28.2413V45.2426Z" stroke="black"/>
</g>
<defs>
<filter id="filter0_d" x="-3.30206" y="0" width="56.6042" height="58" filterUnits="userSpaceOnUse" color-interpolation-filters="sRGB">
<feFlood flood-opacity="0" result="BackgroundImageFix"/>
<feColorMatrix in="SourceAlpha" type="matrix" values="0 0 0 0 0 0 0 0 0 0 0 0 0 0 0 0 0 0 127 0"/>
<feOffset dy="4"/>
<feGaussianBlur stdDeviation="2"/>
<feColorMatrix type="matrix" values="0 0 0 0 0 0 0 0 0 0 0 0 0 0 0 0 0 0 0.25 0"/>
<feBlend mode="normal" in2="BackgroundImageFix" result="effect1_dropShadow"/>
<feBlend mode="normal" in="SourceGraphic" in2="effect1_dropShadow" result="shape"/>
</filter>
</defs>
</svg>
